<svg width="16px" height="15px" viewBox="0 0 16 15" version="1.1" xmlns="http://www.w3.org/2000/svg" xmlns:xlink="http://www.w3.org/1999/xlink">
    <!-- Generator: Sketch 49.3 (51167) - http://www.bohemiancoding.com/sketch -->
    <desc>Created with Sketch.</desc>
    <defs></defs>
    <g id="iPhone" stroke="none" stroke-width="1" fill="none" fill-rule="evenodd">
        <g id="iPhone-7---All-Notes" transform="translate(-49.000000, -333.000000)" fill="white" fill-rule="nonzero">
            <g id="Sidebar" transform="translate(19.000000, 132.000000)">
                <g id="tag" transform="translate(30.000000, 201.000000)">
                    <path d="M15.6629498,2.75732352 L15.0119237,2.14698653 L14.1946406,2.91318944 C14.3081894,3.41894451 14.1559343,3.966669 13.7370311,4.35942667 C13.0778341,4.97738793 12.0091323,4.97738793 11.3499737,4.35942667 C10.6907766,3.74146541 10.6907766,2.73955754 11.3499737,2.12156031 C11.7688768,1.72883861 12.3531163,1.58609938 12.8925883,1.69255141 L13.7098714,0.926348497 L13.0588837,0.316011501 C12.6094451,-0.105337167 7.97469606,-0.105337167 7.52529584,0.316011501 L0.337078935,7.05496485 C-0.112359645,7.47631352 -0.112359645,8.1594407 0.337078935,8.58078936 L6.84718678,14.6840155 C7.296587,15.1053282 8.02529435,15.1053282 8.47473293,14.6840155 L15.6629498,7.94502615 C16.1123501,7.52367749 16.1123501,3.17863623 15.6629498,2.75732352 Z" id="Shape"></path>
                    <path d="M12.1227668,3.87723343 C12.286456,4.04092219 12.5518657,4.04092219 12.7155548,3.87723343 L15.877207,0.715588158 C16.040931,0.551864466 16.040931,0.286455331 15.877207,0.122766571 C15.7135178,-0.0409221902 15.4481081,-0.0409221902 15.284419,0.122766571 L12.1227668,3.28441184 C11.9590777,3.44813553 11.9590777,3.71354467 12.1227668,3.87723343 Z" id="Shape"></path>
                </g>
            </g>
        </g>
    </g>
</svg>