<?xml version="1.0" encoding="UTF-8" standalone="no"?>
<svg width="19px" height="16px" viewBox="0 0 19 16" version="1.1" xmlns="http://www.w3.org/2000/svg" xmlns:xlink="http://www.w3.org/1999/xlink">
    <!-- Generator: sketchtool 39.1 (31720) - http://www.bohemiancoding.com/sketch -->
    <title>7383668E-1E8C-4C45-A6B0-5B7D7123BEDE</title>
    <desc>Created with sketchtool.</desc>
    <defs></defs>
    <g id="Symbols" stroke="none" stroke-width="1" fill="none" fill-rule="evenodd">
        <g id="Icons-/-Attachment/link" fill="#30A88F">
            <path d="M16.1353335,11.5374943 L16.1353335,6.13533347 C16.1353335,2.65634187 13.3046012,-0.17439042 9.82560958,-0.17439042 C6.34661798,-0.17439042 3.51588569,2.65634187 3.51588569,6.13533347 L3.51588569,13.3310117 C3.51588569,15.8160057 5.52548953,17.8256096 8.01048353,17.8256096 C10.4954775,17.8256096 12.5050814,15.8160057 12.5050814,13.3310117 L12.5050814,6.13533347 C12.52669,4.64433707 11.316606,3.43425304 9.82560958,3.43425304 C8.33461318,3.43425304 7.12452915,4.64433707 7.12452915,6.13533347 L7.12452915,11.5374943 L8.91804656,11.5374943 L8.91804656,6.13533347 C8.91804656,5.63833467 9.32861078,5.22777044 9.82560958,5.22777044 C10.3226084,5.22777044 10.7331726,5.63833467 10.7331726,6.13533347 L10.7331726,13.3310117 C10.7331726,14.8220081 9.52308857,16.0320922 8.03209217,16.0320922 C6.54109577,16.0320922 5.33101174,14.8220081 5.33101174,13.3310117 L5.33101174,6.13533347 C5.33101174,3.65033947 7.34061558,1.64073563 9.82560958,1.64073563 C12.3106036,1.64073563 14.3202074,3.65033947 14.3202074,6.13533347 L14.3202074,11.5374943 L16.1353335,11.5374943 L16.1353335,11.5374943 Z" id="Attachement-Icon" transform="translate(9.825610, 8.825610) rotate(45.000000) translate(-9.825610, -8.825610) "></path>
        </g>
    </g>
</svg>