<?xml version="1.0" encoding="UTF-8" standalone="no"?>
<svg width="20px" height="20px" viewBox="0 0 20 20" version="1.1" xmlns="http://www.w3.org/2000/svg" xmlns:xlink="http://www.w3.org/1999/xlink">
    <!-- Generator: Sketch 39.1 (31720) - http://www.bohemiancoding.com/sketch -->
    <title>Shape</title>
    <desc>Created with Sketch.</desc>
    <defs></defs>
    <g id="Symbols" stroke="none" stroke-width="1" fill="none" fill-rule="evenodd">
        <g id="Icons-/-Feedback-/-white" fill="#FFFFFF">
            <path d="M19.5850575,17.6279806 C19.2414565,17.2201217 18.9892558,16.89278 18.7868552,16.3074589 C18.3678539,14.7273354 18.8578554,12.9164096 18.8578554,12.9164096 L18.8550554,12.9182349 C19.1764563,11.9420913 19.3532568,10.8988164 19.3532568,9.81295043 C19.3532568,4.39315309 15.0202441,0 9.67662841,0 C4.33301272,0.000202813956 0,4.39335591 0,9.81315325 C0,14.0073458 2.59620762,17.584984 6.24641834,18.989065 L6.24461834,18.9892679 C6.24461834,18.9892679 6.2674184,18.9985973 6.30901853,19.014214 C6.78741993,19.1943128 7.28382139,19.3366882 7.79462289,19.4389064 C9.77222869,19.8911815 13.5834399,20.4043008 18.8896555,19.50259 C20.2080593,19.2734102 20.2330594,18.3976595 19.5850575,17.6279806 L19.5850575,17.6279806 Z M11.4182335,12.0286929 L7.82002296,12.0286929 C7.46782193,12.0286929 7.18242109,11.7390746 7.18242109,11.3819192 C7.18242109,11.0247638 7.46802193,10.7353483 7.82002296,10.7353483 L11.4182335,10.7353483 C11.7706346,10.7353483 12.0558354,11.0247638 12.0558354,11.3819192 C12.0558354,11.7390746 11.7706346,12.0286929 11.4182335,12.0286929 L11.4182335,12.0286929 Z M12.9604381,9.47161454 L7.82002296,9.47161454 C7.46782193,9.47161454 7.18242109,9.18219903 7.18242109,8.82504365 C7.18242109,8.46788828 7.46802193,8.17847276 7.82002296,8.17847276 L12.9604381,8.17847276 C13.3128391,8.17847276 13.5980399,8.46809109 13.5980399,8.82504365 C13.5980399,9.18219903 13.3126391,9.47161454 12.9604381,9.47161454 L12.9604381,9.47161454 Z" id="Shape"></path>
        </g>
    </g>
</svg>