<?xml version="1.0" encoding="UTF-8" standalone="no"?>
<svg width="30px" height="30px" viewBox="0 0 30 30" version="1.1" xmlns="http://www.w3.org/2000/svg" xmlns:xlink="http://www.w3.org/1999/xlink">
    <!-- Generator: Sketch 43 (38999) - http://www.bohemiancoding.com/sketch -->
    <title>1491962561_sticky-note-o</title>
    <desc>Created with Sketch.</desc>
    <defs></defs>
    <g id="Page-1" stroke="none" stroke-width="1" fill="none" fill-rule="evenodd">
        <g id="1491962561_sticky-note-o" fill-rule="nonzero" fill="#FFFFFF">
            <path d="M27.34375,22.5 L22.5,22.5 L22.5,27.34375 C22.8776042,27.2135417 23.1445312,27.0703125 23.3007812,26.9140625 L26.9140625,23.3007812 C27.0703125,23.1445312 27.2135417,22.8776042 27.34375,22.5 Z M21.875,20 L27.5,20 L27.5,2.5 L2.5,2.5 L2.5,27.5 L20,27.5 L20,21.875 C20,21.3541667 20.1822917,20.9114583 20.546875,20.546875 C20.9114583,20.1822917 21.3541667,20 21.875,20 Z M30,1.875 L30,21.875 C30,22.3958333 29.8697917,22.96875 29.609375,23.59375 C29.3489583,24.21875 29.0364583,24.7135417 28.671875,25.078125 L25.078125,28.671875 C24.7135417,29.0364583 24.21875,29.3489583 23.59375,29.609375 C22.96875,29.8697917 22.3958333,30 21.875,30 L1.875,30 C1.35416667,30 0.911458333,29.8177083 0.546875,29.453125 C0.182291667,29.0885417 0,28.6458333 0,28.125 L0,1.875 C0,1.35416667 0.182291667,0.911458333 0.546875,0.546875 C0.911458333,0.182291667 1.35416667,0 1.875,0 L28.125,0 C28.6458333,0 29.0885417,0.182291667 29.453125,0.546875 C29.8177083,0.911458333 30,1.35416667 30,1.875 Z" id="Shape"></path>
        </g>
    </g>
</svg>