<?xml version="1.0" encoding="UTF-8" standalone="no"?>
<svg width="25px" height="25px" viewBox="0 0 25 25" version="1.1" xmlns="http://www.w3.org/2000/svg" xmlns:xlink="http://www.w3.org/1999/xlink">
    <!-- Generator: Sketch 39.1 (31720) - http://www.bohemiancoding.com/sketch -->
    <title>TV</title>
    <desc>Created with Sketch.</desc>
    <defs></defs>
    <g id="ASSETS" stroke="none" stroke-width="1" fill="none" fill-rule="evenodd">
        <path d="M23.7847222,6.25 L14.4097222,6.25 L18.5763889,2.08333333 C19.0015996,1.64510967 19.0015996,0.851723448 18.5763889,0.347222222 C18.0285257,-0.121674778 17.2354039,-0.121674778 16.6666667,0.347222222 L12.5,4.6875 L8.15972222,0.347222222 C7.75793122,-0.121674778 6.96480938,-0.121674778 6.42361111,0.347222222 C5.99173554,0.851723448 5.99173554,1.64510967 6.42361111,2.08333333 L10.5902778,6.25 L1.21527778,6.25 C0.559850706,6.24541636 0,6.8054537 0,7.46527778 L0,23.7847222 C0,24.4399627 0.559850706,25 1.21527778,25 L23.7847222,25 C24.4401493,25 25,24.4399627 25,23.7847222 L25,7.46527778 C24.9933351,6.8054537 24.4334844,6.24541636 23.7847222,6.25 L23.7847222,6.25 Z M17.3611111,22.3958333 L2.43055556,22.3958333 L2.43055556,8.68055556 L17.3611111,8.68055556 L17.3611111,22.3958333 L17.3611111,22.3958333 Z M21.1805556,17.3611111 C20.5082742,17.3611111 19.9652778,16.8181147 19.9652778,16.1458333 C19.9652778,15.473552 20.5082742,14.9305556 21.1805556,14.9305556 C21.8528369,14.9305556 22.3958333,15.473552 22.3958333,16.1458333 C22.3958333,16.8181147 21.8528369,17.3611111 21.1805556,17.3611111 L21.1805556,17.3611111 Z M21.1805556,12.5 C20.5082742,12.5 19.9652778,11.9570035 19.9652778,11.2847222 C19.9652778,10.6124409 20.5082742,10.0694444 21.1805556,10.0694444 C21.8528369,10.0694444 22.3958333,10.6124409 22.3958333,11.2847222 C22.3958333,11.9570035 21.8528369,12.5 21.1805556,12.5 L21.1805556,12.5 Z" id="TV" fill="#fff"></path>
    </g>
</svg>