<?xml version="1.0" encoding="UTF-8" standalone="no"?>
<svg width="12px" height="12px" viewBox="0 0 12 12" version="1.1" xmlns="http://www.w3.org/2000/svg" xmlns:xlink="http://www.w3.org/1999/xlink">
    <!-- Generator: sketchtool 3.8.3 (29802) - http://www.bohemiancoding.com/sketch -->
    <title>800C7ED4-D599-45A0-9CFE-4D24099724DE</title>
    <desc>Created with sketchtool.</desc>
    <defs></defs>
    <g id="VISUAL---All-Stories-/-Create-(working)" stroke="none" stroke-width="1" fill="none" fill-rule="evenodd">
        <g id="All-Stories---Visual-Design---1" transform="translate(-327.000000, -24.000000)" fill="#FFFFFF">
            <path d="M338.399194,26.9969674 L333.913741,26.9969674 L335.887724,25.0229841 C336.121275,24.7894334 336.121275,24.4087137 335.887724,24.175163 C335.654173,23.9416123 335.273454,23.9416123 335.039903,24.175163 L332.998734,26.2163321 L330.957565,24.175163 C330.724014,23.9416123 330.343294,23.9416123 330.109744,24.175163 C329.876193,24.4087137 329.876193,24.7894334 330.109744,25.0229841 L332.083727,26.9969674 L327.601473,26.9969674 C327.268743,26.9969674 327,27.2657106 327,27.5984404 L327,35.3951945 C327,35.7279243 327.268743,35.9966676 327.601473,35.9966676 L338.399194,35.9966676 C338.731923,35.9966676 339.000667,35.7279243 339.000667,35.3951945 L339.000667,27.5984404 C338.997467,27.2657106 338.728724,26.9969674 338.399194,26.9969674 L338.399194,26.9969674 Z M335.398227,34.7969208 L328.199747,34.7969208 L328.199747,28.1967141 L335.398227,28.1967141 L335.398227,34.7969208 L335.398227,34.7969208 Z M337.199447,32.3974273 C336.866717,32.3974273 336.597974,32.1286841 336.597974,31.7959543 C336.597974,31.4632245 336.866717,31.1944813 337.199447,31.1944813 C337.532177,31.1944813 337.80092,31.4632245 337.80092,31.7959543 C337.80092,32.1286841 337.532177,32.3974273 337.199447,32.3974273 L337.199447,32.3974273 Z M337.199447,29.9979339 C336.866717,29.9979339 336.597974,29.7291906 336.597974,29.3964608 C336.597974,29.0637311 336.866717,28.7949878 337.199447,28.7949878 C337.532177,28.7949878 337.80092,29.0637311 337.80092,29.3964608 C337.80092,29.7291906 337.532177,29.9979339 337.199447,29.9979339 L337.199447,29.9979339 Z" id="Stories-Nav-TV-Icon"></path>
        </g>
    </g>
</svg>