<?xml version="1.0" encoding="UTF-8" standalone="no"?>
<svg width="136px" height="38px" viewBox="0 0 468 68" version="1.1" xmlns="http://www.w3.org/2000/svg" xmlns:xlink="http://www.w3.org/1999/xlink">
    <!-- Generator: Sketch 39.1 (31720) - http://www.bohemiancoding.com/sketch -->
    <title>News_Storyline</title>
    <desc>Created with Sketch.</desc>
    <defs></defs>
    <g id="Page-1" stroke="none" stroke-width="1" fill="none" fill-rule="evenodd">
        <g id="News_Storyline" fill="#FFFFFF">
            <g id="Layer_2">
                <g id="logo_1_-_dark2">
                    <g id="Group">
                        <g id="Shape">
                            <path d="M17.12,47.54 C17.12,51.68 20.12,53.75 26.12,53.75 C32.12,53.75 35.12,51.89 35.12,48.17 C35.0622022,46.0966184 33.8611161,44.2256958 32,43.31 C29.6801927,41.9298836 27.1841818,40.8702564 24.58,40.16 C21.6666667,39.32 18.7566667,38.3466667 15.85,37.24 C12.9590623,36.1544917 10.3918603,34.3512559 8.39,32 C6.31063502,29.5220995 5.22077405,26.3629273 5.33,23.13 C5.33,8.08333333 15.02,0.56 34.4,0.56 C41.48,0.56 46.8366667,1.89333333 50.47,4.56 C54.0488546,7.10771427 56.0989084,11.2905764 55.92,15.68 C55.92608,17.3701219 55.6972239,19.0528874 55.24,20.68 C54.9537437,21.8543687 54.4810804,22.975256 53.84,24 L53.12,25.08 L37.19,25.08 C38.5276362,23.6773005 39.2479081,21.7973908 39.19,19.86 C39.19,15.96 36.64,14.01 31.54,14.01 C25.12,14.01 21.91,16.05 21.91,20.13 C21.9262606,22.2099892 23.1250501,24.0993435 25,25 C27.318433,26.3079367 29.8194232,27.2618184 32.42,27.83 C35.3846356,28.5388516 38.3116786,29.3966053 41.19,30.4 C44.0903506,31.3931132 46.6703852,33.1476749 48.66,35.48 C50.7761165,38.0741077 51.8651389,41.3554105 51.72,44.7 C51.72,52.32 49.44,57.9866667 44.88,61.7 C40.32,65.4133333 33.3,67.26 23.82,67.24 C14.34,67.24 7.86,65.5733333 4.38,62.24 C1.8,59.72 0.51,56.24 0.51,51.8 C0.52547866,49.9575346 0.706202881,48.1201717 1.05,46.31 L1.32,44.87 L17.52,44.87 L17.34,45.95 C17.2152839,46.4716126 17.1416036,47.0041202 17.12,47.54 L17.12,47.54 Z"></path>
                            <polygon points="121.07 15.23 98.93 15.23 90 66 73.73 66 82.64 15.24 60.41 15.24 62.93 1.24 123.59 1.24"></polygon>
                            <path d="M152.93,0.56 C167.39,0.56 174.62,6.47 174.62,18.29 C174.603511,20.4346605 174.392648,22.5734116 173.99,24.68 L170.84,42.68 C169.4,51.02 166.28,57.2 161.48,61.22 C156.68,65.24 149.93,67.24 141.23,67.22 C132.53,67.22 126.47,65.22 123.05,61.22 C120.71,58.46 119.54,54.65 119.54,49.79 C119.562178,47.4029749 119.803187,45.0230115 120.26,42.68 L123.41,24.68 C126.23,8.6 136.07,0.56 152.93,0.56 L152.93,0.56 Z M143.66,53.3 C146.266219,53.4328728 148.829863,52.5996883 150.86,50.96 C152.66,49.4 153.92,46.52 154.64,42.32 L157.7,25 C157.877639,23.9420421 157.977905,22.8725402 158,21.8 C158,16.94 155.54,14.51 150.62,14.51 C144.44,14.63 140.75,18.14 139.55,25.04 L136.49,42.32 C136.23609,43.8671884 136.105679,45.4321257 136.1,47 C136.1,51.2 138.62,53.3 143.66,53.3 L143.66,53.3 Z"></path>
                            <path d="M211.61,1.19 C218.45,1.19 223.31,2.69 226.19,5.69 C228.372656,8.02661474 229.538062,11.134366 229.43,14.33 C229.423307,15.5982317 229.302824,16.8633046 229.07,18.11 L227.81,25.11 C227.293573,28.502179 226.014861,31.7331482 224.07,34.56 C222.561596,36.7349782 220.533463,38.4984231 218.17,39.69 L226.37,66 L208.19,66 L200.63,41.79 L195.05,41.79 L191.36,66 L174.08,66 L185.51,1.2 L211.61,1.19 Z M205.94,15.19 L199.19,15.19 L196.85,30.85 L203.15,30.85 C206.33,30.85 208.61,30.0866667 209.99,28.56 C211.427533,26.8700062 212.167671,24.6960747 212.06,22.48 C212.06,17.6466667 210.02,15.23 205.94,15.23 L205.94,15.19 Z"></path>
                            <polygon points="257.24 24 272.45 1.19 288.65 1.19 260.93 41.06 256.52 66 240.23 66 244.64 41.07 231 1.19 248.19 1.19 255.19 23.96"></polygon>
                            <polygon points="323.12 66 282.12 66 293.55 1.2 309.75 1.2 300.8 51.95 325.64 51.95"></polygon>
                            <polygon points="357.95 1.19 346.61 66 330.32 66 341.75 1.2"></polygon>
                            <polygon points="415.28 1.19 403.94 66 387.65 66 376.31 30.53 370.19 66 353.9 66 365.33 1.2 382.07 1.2 393.23 34.32 399.08 1.2"></polygon>
                            <polygon points="456.59 66 411.41 66 422.84 1.2 468 1.2 465.48 15.2 436.48 15.2 434.41 27.35 458.35 27.35 455.83 41.35 431.93 41.35 430.13 51.88 459.13 51.88"></polygon>
                        </g>
                    </g>
                </g>
            </g>
        </g>
    </g>
</svg>