<?xml version="1.0" encoding="UTF-8" standalone="no"?>
<svg width="20px" height="20px" viewBox="0 0 20 20" version="1.1" xmlns="http://www.w3.org/2000/svg" xmlns:xlink="http://www.w3.org/1999/xlink">
    <!-- Generator: Sketch 39.1 (31720) - http://www.bohemiancoding.com/sketch -->
    <title>TV</title>
    <desc>Created with Sketch.</desc>
    <defs></defs>
    <g id="ASSETS" stroke="none" stroke-width="1" fill="none" fill-rule="evenodd">
        <path d="M19.0277778,5 L11.5277778,5 L14.8611111,1.66666667 C15.2012797,1.31608774 15.2012797,0.681378759 14.8611111,0.277777778 C14.4228206,-0.0973398227 13.7883231,-0.0973398227 13.3333333,0.277777778 L10,3.75 L6.52777778,0.277777778 C6.20634497,-0.0973398227 5.57184751,-0.0973398227 5.13888889,0.277777778 C4.79338843,0.681378759 4.79338843,1.31608774 5.13888889,1.66666667 L8.47222222,5 L0.972222222,5 C0.447880565,4.99633309 0,5.44436296 0,5.97222222 L0,19.0277778 C0,19.5519701 0.447880565,20 0.972222222,20 L19.0277778,20 C19.5521194,20 20,19.5519701 20,19.0277778 L20,5.97222222 C19.9946681,5.44436296 19.5467875,4.99633309 19.0277778,5 L19.0277778,5 Z M13.8888889,17.9166667 L1.94444444,17.9166667 L1.94444444,6.94444444 L13.8888889,6.94444444 L13.8888889,17.9166667 L13.8888889,17.9166667 Z M16.9444444,13.8888889 C16.4066194,13.8888889 15.9722222,13.4544917 15.9722222,12.9166667 C15.9722222,12.3788416 16.4066194,11.9444444 16.9444444,11.9444444 C17.4822695,11.9444444 17.9166667,12.3788416 17.9166667,12.9166667 C17.9166667,13.4544917 17.4822695,13.8888889 16.9444444,13.8888889 L16.9444444,13.8888889 Z M16.9444444,10 C16.4066194,10 15.9722222,9.56560284 15.9722222,9.02777778 C15.9722222,8.48995272 16.4066194,8.05555556 16.9444444,8.05555556 C17.4822695,8.05555556 17.9166667,8.48995272 17.9166667,9.02777778 C17.9166667,9.56560284 17.4822695,10 16.9444444,10 L16.9444444,10 Z" id="TV" fill="#fff"></path>
    </g>
</svg>