<?xml version="1.0" encoding="UTF-8" standalone="no"?>
<svg width="14px" height="14px" viewBox="0 0 14 14" version="1.1" xmlns="http://www.w3.org/2000/svg" xmlns:xlink="http://www.w3.org/1999/xlink">
    <!-- Generator: sketchtool 39.1 (31720) - http://www.bohemiancoding.com/sketch -->
    <title>85118C2B-2628-4467-9F12-331ABB807388</title>
    <desc>Created with sketchtool.</desc>
    <defs></defs>
    <g id="Symbols" stroke="none" stroke-width="1" fill="none" fill-rule="evenodd">
        <g id="Unassign-Button" transform="translate(-8.000000, -8.000000)" fill="#30A88F">
            <path d="M14.9996653,21.9996781 C13.766029,22.0065586 12.5532937,21.6811688 11.4887837,21.0576712 C10.4322208,20.4454949 9.55423911,19.567485 8.94208253,18.5108882 C8.31863578,17.4463311 7.99325877,16.2335655 8.00010588,14.9998939 C7.9933582,13.766235 8.31872828,12.5534953 8.94208253,11.4888995 C9.44352224,10.6233036 10.1249986,9.87549125 10.9404187,9.29604198 C11.0025652,9.22976317 11.0761944,9.17528033 11.1577462,9.13522794 L11.4887837,8.94211653 C12.5532679,8.3185572 13.7660204,7.99316279 14.9996653,8.00010961 C16.2335253,7.99314134 17.4465001,8.31853303 18.5112197,8.94211653 C19.5674373,9.554742 20.445315,10.432648 21.0579208,11.4888995 C21.6812685,12.5537435 22.0066335,13.7666969 21.9998975,15.0005667 C22.006612,16.2342213 21.6812443,17.4469524 21.0579208,18.5115611 C20.4452901,19.5677934 19.5674181,20.4456937 18.5112197,21.058344 C17.4464076,21.6816305 16.2334543,22.006784 14.9996653,21.9996781 L14.9996653,21.9996781 Z M13.0827428,18.9482485 C13.6762001,19.2512246 14.3333494,19.4083089 14.9996653,19.4064676 C16.1704905,19.421489 17.2959049,18.9540316 18.1115524,18.1138996 C18.9815352,17.2438889 19.404079,16.2258486 19.404079,15.0019124 C19.405846,14.3353689 19.2487739,13.6779974 18.9458746,13.0842555 L13.0827428,18.9482485 Z M14.9996653,10.5973572 C13.7757685,10.5973572 12.7577608,11.0199146 11.8877781,11.8899253 C11.0177954,12.759936 10.5952516,13.7779763 10.5952516,15.0019124 C10.5939735,15.6947074 10.762134,16.3773039 11.0850794,16.9902199 L17.0013657,11.086528 C16.3839747,10.7627523 15.6967945,10.5948208 14.9996653,10.5973572 L14.9996653,10.5973572 Z" id="Unassign---Icon---Green"></path>
        </g>
    </g>
</svg>