<?xml version="1.0" encoding="UTF-8" standalone="no"?>
<svg width="16px" height="16px" viewBox="0 0 16 16" version="1.1" xmlns="http://www.w3.org/2000/svg" xmlns:xlink="http://www.w3.org/1999/xlink">
    <!-- Generator: sketchtool 39.1 (31720) - http://www.bohemiancoding.com/sketch -->
    <title>B04FCE14-8436-4B44-9F61-5434D49362F5</title>
    <desc>Created with sketchtool.</desc>
    <defs></defs>
    <g id="ROUND-4---Create-/-Assign-/-Editorial" stroke="none" stroke-width="1" fill="none" fill-rule="evenodd">
        <g id="Story-Detail---Editorial" transform="translate(-369.000000, -348.000000)" fill="#666666">
            <g id="Write-Icon" transform="translate(369.000000, 348.000000)">
                <polygon id="Shape" points="12.3208805 13.5125355 2.4633543 13.5125355 2.4633543 3.59369346 6.98121593 3.59369346 9.44662474 1.11243215 0 1.11243215 0 15.9917291 14.7842348 15.9917291 14.7842348 6.4864306 12.3208805 8.96562419"></polygon>
                <g id="Group-3-Copy" transform="translate(3.924528, 0.000000)">
                    <path d="M12.065837,0.865466541 L11.892112,0.691741505 C10.96979,-0.230580502 9.46627875,-0.230580502 8.54079811,0.691741505 C7.6184761,1.61406351 7.6184761,3.11757473 8.54079811,4.04305537 L8.71452314,4.21678041 L12.065837,0.865466541 L12.065837,0.865466541 Z" id="Shape" transform="translate(9.957447, 2.108390) scale(-1, 1) translate(-9.957447, -2.108390) "></path>
                    <polygon id="Shape" transform="translate(5.271502, 6.805701) scale(-1, 1) translate(-5.271502, -6.805701) " points="8.87931743e-05 5.01627666 7.05928383 12.0754717 10.5429145 12.0754717 10.5429145 8.59184103 3.48371946 1.53592935"></polygon>
                </g>
            </g>
        </g>
    </g>
</svg>